<svg width="64" height="64" viewBox="0 0 64 64" fill="none" xmlns="http://www.w3.org/2000/svg">
  <defs>
    <linearGradient id="tile" x1="12" y1="10" x2="52" y2="54" gradientUnits="userSpaceOnUse">
      <stop stop-color="#1F1E1A" />
      <stop offset="1" stop-color="#12120F" />
    </linearGradient>
    <linearGradient id="accent" x1="22" y1="20" x2="42" y2="48" gradientUnits="userSpaceOnUse">
      <stop stop-color="#DBD2BD" />
      <stop offset="1" stop-color="#C8B998" />
    </linearGradient>
  </defs>
  <rect width="64" height="64" rx="18" fill="#0F0F0D" />
  <rect x="6" y="6" width="52" height="52" rx="14" fill="url(#tile)" stroke="#3C3B33" stroke-width="2" />
  <path d="M18 17.5C18 16.6716 18.6716 16 19.5 16H44.5C45.3284 16 46 16.6716 46 17.5V20.5C46 21.3284 45.3284 22 44.5 22H19.5C18.6716 22 18 21.3284 18 20.5V17.5Z" fill="#2A2923" />
  <path d="M21 23.5C21 22.6716 21.6716 22 22.5 22H41.5C42.3284 22 43 22.6716 43 23.5V28.5C43 29.3284 42.3284 30 41.5 30H34V45.5C34 46.3284 33.3284 47 32.5 47H28.5C27.6716 47 27 46.3284 27 45.5V30H22.5C21.6716 30 21 29.3284 21 28.5V23.5Z" fill="url(#accent)" />
  <rect x="38.5" y="33" width="4.5" height="14" rx="2.25" fill="#E5E3D8" />
</svg>
